<?xml version="1.0" encoding="UTF-8"?>
<svg xmlns="http://www.w3.org/2000/svg" width="512" height="512" viewBox="0 0 512 512">
  <defs>
    <linearGradient id="water" x1="0" x2="0" y1="0" y2="1">
      <stop offset="0" stop-color="#bfe9ff"/>
      <stop offset="1" stop-color="#89cff0"/>
    </linearGradient>
  </defs>
  <!-- 淡蓝海水背景 -->
  <rect x="0" y="0" width="512" height="512" fill="url(#water)"/>
  <!-- 沙地 -->
  <path d="M0,420 C80,400 160,440 240,430 C320,420 400,450 512,430 L512,512 L0,512 Z" fill="#f5d9a6"/>
  <!-- 珊瑚与海草（简化卡通） -->
  <g fill="#ff8a80" opacity="0.85">
    <path d="M60,420 C65,390 80,380 90,410 C95,430 80,445 80,460 C80,475 75,485 70,490" stroke="#ff8a80" stroke-width="6" fill="none"/>
    <path d="M100,430 C105,400 120,395 130,420 C140,445 120,460 118,480" stroke="#ff8a80" stroke-width="6" fill="none"/>
  </g>
  <g fill="#66bb6a" opacity="0.9">
    <path d="M220,430 C215,410 225,395 235,420 C245,445 235,465 232,485" stroke="#66bb6a" stroke-width="5" fill="none"/>
    <path d="M250,435 C245,415 258,405 265,427 C272,449 262,467 260,485" stroke="#66bb6a" stroke-width="5" fill="none"/>
  </g>
  <!-- 石头 -->
  <ellipse cx="360" cy="450" rx="28" ry="14" fill="#9ea7b3"/>
  <ellipse cx="385" cy="455" rx="18" ry="9" fill="#a7b0bd"/>
  <!-- 气泡 -->
  <g fill="#ffffff" opacity="0.55">
    <circle cx="80" cy="120" r="4"/>
    <circle cx="86" cy="140" r="6"/>
    <circle cx="92" cy="165" r="5"/>
    <circle cx="300" cy="90" r="5"/>
    <circle cx="310" cy="115" r="7"/>
    <circle cx="320" cy="145" r="4"/>
  </g>
</svg>